<?xml version="1.0" standalone="no"?>
<!DOCTYPE svg PUBLIC "-//W3C//DTD SVG 20010904//EN"
 "http://www.w3.org/TR/2001/REC-SVG-20010904/DTD/svg10.dtd">
<svg version="1.0" xmlns="http://www.w3.org/2000/svg"
 width="1164.000000pt" height="313.000000pt" viewBox="0 0 1164.000000 313.000000"
 preserveAspectRatio="xMidYMid meet">

<g transform="translate(0.000000,313.000000) scale(0.100000,-0.100000)"
fill="#000000" stroke="none">
<path d="M6270 1867 c0 -395 2 -471 16 -518 19 -64 51 -109 98 -138 41 -26
136 -45 177 -36 28 6 29 9 29 64 l0 57 -37 -4 c-49 -3 -82 14 -107 58 -20 34
-21 52 -24 508 l-3 472 -75 0 -74 0 0 -463z"/>
<path d="M896 2301 c-11 -18 6 -41 30 -41 13 0 24 -4 24 -10 0 -5 37 -113 81
-240 81 -227 82 -230 110 -230 18 0 32 7 40 21 13 25 81 221 104 304 28 99 56
155 75 155 19 0 34 25 24 41 -3 5 -46 9 -95 9 -88 0 -90 -1 -87 -22 2 -18 10
-24 40 -26 l37 -3 -15 -52 c-8 -29 -31 -103 -50 -166 -30 -96 -38 -112 -49
-100 -19 19 -71 154 -94 242 l-19 72 22 5 c12 3 22 15 24 28 3 21 1 22 -97 22
-55 0 -102 -4 -105 -9z"/>
<path d="M3793 2243 c4 -7 188 -471 363 -916 l58 -148 75 3 76 3 207 525 c114
289 207 528 208 533 0 4 -35 7 -78 7 l-78 0 -164 -430 c-90 -237 -166 -432
-169 -435 -4 -2 -46 101 -95 228 -49 128 -122 318 -162 424 -41 106 -74 197
-74 202 0 7 -32 11 -86 11 -47 0 -83 -3 -81 -7z"/>
<path d="M7754 2228 c3 -13 75 -252 160 -533 l153 -510 77 -3 c42 -2 76 0 76
2 0 5 69 239 233 791 14 49 15 50 22 20 4 -16 59 -205 124 -420 l116 -390 76
-3 75 -3 158 523 c87 288 161 529 163 536 4 9 -15 12 -73 12 l-79 0 -108 -398
c-60 -218 -114 -417 -121 -442 l-13 -45 -12 45 c-6 25 -62 224 -124 443 l-111
397 -76 0 -75 0 -119 -418 c-65 -229 -122 -428 -126 -442 -7 -23 -8 -22 -15
15 -4 22 -56 219 -116 439 -60 219 -109 400 -109 402 0 2 -36 4 -81 4 -79 0
-81 -1 -75 -22z"/>
<path d="M1619 1908 c-358 -394 -353 -388 -362 -405 -5 -9 -2 -23 7 -39 16
-23 21 -24 129 -25 61 0 126 -6 144 -12 l32 -12 -18 -40 c-10 -22 -72 -135
-139 -252 -66 -117 -123 -221 -127 -232 -7 -24 25 -61 54 -61 15 0 402 387
649 650 66 70 76 101 44 140 -17 21 -25 22 -150 21 -73 -1 -137 1 -142 4 -5 3
23 72 62 153 190 397 179 369 152 396 -37 38 -51 26 -335 -286z m250 160 c-17
-34 -77 -117 -133 -183 -358 -428 -326 -394 -374 -395 -33 0 -41 3 -35 13 9
16 566 627 570 627 2 0 -11 -28 -28 -62z m121 -494 c0 -15 -90 -110 -488 -514
l-143 -145 42 75 c23 41 50 88 59 103 9 16 108 120 220 232 112 113 202 207
199 209 -2 2 -42 16 -89 29 l-85 26 143 0 c125 1 142 -1 142 -15z"/>
<path d="M7055 2073 l-20 -98 -55 -22 c-51 -20 -55 -24 -58 -57 l-3 -35 58 -3
58 -3 5 -245 c5 -222 7 -249 26 -290 44 -93 120 -140 238 -145 39 -2 83 -1 99
2 26 5 27 8 27 63 l0 58 -63 -5 c-81 -7 -128 13 -154 65 -16 32 -18 69 -21
270 l-3 232 125 0 126 0 0 55 c0 37 -4 55 -12 56 -7 0 -62 1 -123 2 l-110 2
-3 98 -3 97 -57 0 -58 0 -19 -97z"/>
<path d="M5315 1973 c-155 -47 -260 -188 -272 -363 -13 -177 67 -326 214 -401
64 -33 72 -34 177 -34 99 0 117 3 168 27 32 15 79 49 106 76 85 87 117 180
110 329 -6 141 -48 227 -151 310 -83 66 -239 91 -352 56z m214 -122 c89 -46
131 -135 131 -277 0 -180 -83 -285 -224 -286 -101 0 -164 41 -208 137 -19 41
-23 67 -23 150 0 110 20 172 73 229 60 64 175 85 251 47z"/>
<path d="M9862 1975 c-188 -41 -321 -173 -340 -337 -10 -90 1 -204 27 -271 73
-189 319 -260 473 -137 20 17 39 30 42 30 3 0 6 -18 6 -40 l0 -40 70 0 70 0 0
399 0 398 -82 6 c-120 10 -194 7 -266 -8z m167 -111 l32 -7 -2 -236 -2 -236
-43 -42 c-48 -46 -86 -58 -164 -51 -60 6 -111 42 -142 101 -17 33 -23 64 -26
142 -6 146 18 212 98 276 56 45 169 69 249 53z"/>
<path d="M10605 1970 c-2 -3 69 -184 157 -404 108 -271 158 -406 154 -421 -3
-12 -21 -44 -39 -71 -42 -61 -106 -96 -176 -96 l-49 0 -4 -55 c-1 -30 -1 -57
1 -59 2 -2 32 -4 66 -4 122 0 222 51 278 142 24 39 352 913 360 958 1 11 -7
15 -33 14 -19 -1 -55 -2 -80 -3 l-45 -1 -100 -310 c-55 -170 -102 -306 -106
-302 -4 4 -55 142 -115 307 -59 165 -109 302 -111 304 -4 6 -154 7 -158 1z"/>
<path d="M2092 1323 c-82 -3 -93 -6 -90 -21 2 -9 13 -18 25 -20 35 -5 43 -24
63 -154 30 -193 58 -320 74 -337 12 -11 21 -12 39 -4 19 9 32 39 76 187 30 97
57 176 61 176 4 0 21 -46 38 -102 17 -57 42 -139 55 -183 24 -77 26 -80 53
-77 38 4 51 23 59 85 9 65 74 388 81 399 3 4 19 8 35 8 26 0 30 3 27 23 -4 26
-41 33 -125 22 -43 -5 -53 -10 -53 -26 0 -15 7 -19 31 -19 28 0 30 -2 25 -27
-2 -16 -15 -83 -27 -151 -12 -68 -25 -120 -30 -115 -4 4 -28 62 -52 128 -73
197 -77 205 -98 205 -15 0 -28 -30 -71 -164 -29 -90 -57 -166 -63 -168 -10 -3
-52 199 -54 259 -1 26 3 32 22 35 14 2 22 10 22 23 0 22 2 22 -123 18z"/>
</g>
</svg>
